<?xml version="1.0" encoding="UTF-8"?>
<svg version="1.1" xmlns="http://www.w3.org/2000/svg" width="225" height="225">
<path d="M0 0 C25.24137931 0 25.24137931 0 32.875 4.8125 C37.34058684 9.40942763 38.62334964 14.23154042 39.0546875 20.4765625 C38.94810359 25.39464844 37.68700137 29.09277432 34.4140625 32.79296875 C31.08812204 35.8502197 28.57333087 37.46196107 24 38 C23.67 38.66 23.34 39.32 23 40 C26.18716274 44.43431337 30.05343302 47.79423607 34.171875 51.328125 C34.77515625 51.87984375 35.3784375 52.4315625 36 53 C36 53.33 36 53.66 36 54 C32.3113205 54.53793243 30.15284932 54.7768223 27 52.65234375 C24.94137531 50.82290189 22.97230831 48.92183585 21 47 C19.75646389 45.97130245 18.50681344 44.94993305 17.25 43.9375 C14.11950369 41.27980176 12.09561964 38.520641 10 35 C12 34 12 34 15.0625 34.125 C21.00580019 33.9363238 26.01702132 32.78468082 30.5 28.75 C33.60736747 23.05315964 33.07592534 18.0444576 31.86328125 11.91796875 C31.15148339 9.8826016 31.15148339 9.8826016 29.29296875 8.86328125 C20.17696233 5.43119025 16.21388418 5.70086776 5 5 C5 21.17 5 37.34 5 54 C3.35 54 1.7 54 0 54 C0 36.18 0 18.36 0 0 Z " fill="#E2E3E3" transform="translate(129,73)"/>
<path d="M0 0 C3.80062314 4.32605491 6.27262302 9.03651714 8.875 14.125 C9.76638849 15.84272752 10.65831205 17.56017748 11.55078125 19.27734375 C11.97568848 20.09831543 12.4005957 20.91928711 12.83837891 21.76513672 C15.88215353 27.62110832 19.07110382 33.3937875 22.36328125 39.11328125 C22.77763428 39.83749268 23.1919873 40.5617041 23.61889648 41.30786133 C24.4421372 42.74457239 25.27089039 44.17814194 26.10571289 45.6081543 C29 50.66491843 29 50.66491843 29 54 C26.67919922 54.26049805 26.67919922 54.26049805 24 54 C22.44970703 52.28051758 22.44970703 52.28051758 21.1328125 49.83203125 C20.62911133 48.91760254 20.12541016 48.00317383 19.60644531 47.06103516 C19.07631836 46.05089355 18.54619141 45.04075195 18 44 C17.43120117 42.94989746 16.86240234 41.89979492 16.27636719 40.81787109 C13.83371357 36.2915417 11.43148738 31.74435342 9.03515625 27.19335938 C8.44347656 26.08154297 7.85179687 24.96972656 7.2421875 23.82421875 C6.45110596 22.32507935 6.45110596 22.32507935 5.64404297 20.7956543 C3.97908227 17.96442993 2.11223872 15.51018427 0 13 C-0.62660522 14.17018677 -0.62660522 14.17018677 -1.26586914 15.36401367 C-2.85185096 18.32566567 -4.43796816 21.28724509 -6.02416992 24.2487793 C-6.70390963 25.51795706 -7.38359909 26.78716175 -8.06323242 28.05639648 C-12.6972797 36.71050551 -17.34199448 45.3587595 -22 54 C-24.31 54 -26.62 54 -29 54 C-20.05636285 35.62636477 -10.28807075 17.65445374 0 0 Z " fill="#E8E7E7" transform="translate(75,73)"/>
<path d="M0 0 C1.65 0 3.3 0 5 0 C5 17.82 5 35.64 5 54 C3.35 54 1.7 54 0 54 C0 36.18 0 18.36 0 0 Z " fill="#E2E4E3" transform="translate(113,73)"/>
<path d="M0 0 C0.99 0.33 1.98 0.66 3 1 C2.91776321 3.79605098 2.41865393 5.52830905 0.55078125 7.6328125 C-2.86435499 10.69976782 -5.33831772 12.45156679 -10 13 C-10.33 13.66 -10.66 14.32 -11 15 C-7.81283726 19.43431337 -3.94656698 22.79423607 0.171875 26.328125 C0.77515625 26.87984375 1.3784375 27.4315625 2 28 C2 28.33 2 28.66 2 29 C-1.6886795 29.53793243 -3.84715068 29.7768223 -7 27.65234375 C-9.05862469 25.82290189 -11.02769169 23.92183585 -13 22 C-14.24353611 20.97130245 -15.49318656 19.94993305 -16.75 18.9375 C-19.88049631 16.27980176 -21.90438036 13.520641 -24 10 C-22 9 -22 9 -19.0625 9.125 C-14.58436495 9.22892297 -10.59816953 7.87529399 -6.35546875 6.55859375 C-4 6 -4 6 -2 7 C-0.5393715 4.35261084 0 3.10551666 0 0 Z " fill="#F1F0F0" transform="translate(163,98)"/>
<path d="M0 0 C6.93 0 13.86 0 21 0 C21 0.33 21 0.66 21 1 C14.4 1 7.8 1 1 1 C1 1.66 1 2.32 1 3 C1.66 3 2.32 3 3 3 C3.33 13.56 3.66 24.12 4 35 C4.33 35 4.66 35 5 35 C5 41.27 5 47.54 5 54 C3.35 54 1.7 54 0 54 C0 36.18 0 18.36 0 0 Z " fill="#DEE1E0" transform="translate(129,73)"/>
<path d="M0 0 C3.23761296 1.34245581 4.57993979 2.42230389 6.0703125 5.58984375 C6.40933594 6.29173828 6.74835938 6.99363281 7.09765625 7.71679688 C7.60619141 8.81604492 7.60619141 8.81604492 8.125 9.9375 C8.81349731 11.38488004 9.50354526 12.83152371 10.1953125 14.27734375 C10.49453613 14.91921631 10.79375977 15.56108887 11.10205078 16.22241211 C12.08683407 18.26020087 12.08683407 18.26020087 14 21 C14 21.99 14 22.98 14 24 C11.703125 24.30078125 11.703125 24.30078125 9 24 C7.234375 21.91796875 7.234375 21.91796875 5.75 19.1875 C5.24984375 18.29417969 4.7496875 17.40085937 4.234375 16.48046875 C3 14 3 14 2 11 C2.3403125 10.071875 2.3403125 10.071875 2.6875 9.125 C3.28775076 6.73794047 3.28775076 6.73794047 1.0625 4.25 C0.381875 3.5075 -0.29875 2.765 -1 2 C-0.67 1.34 -0.34 0.68 0 0 Z " fill="#EEEDED" transform="translate(90,103)"/>
<path d="M0 0 C6.6 0 13.2 0 20 0 C19 2 19 2 18 3 C13.05 3 8.1 3 3 3 C3 17.52 3 32.04 3 47 C2.67 47 2.34 47 2 47 C1.8324345 41.07365273 1.67186951 35.14717308 1.51782227 29.22045898 C1.46441495 27.20380535 1.40908657 25.18720165 1.35180664 23.1706543 C1.26986047 20.27403531 1.19479855 17.37730769 1.12109375 14.48046875 C1.09405869 13.57725388 1.06702362 12.674039 1.03916931 11.74345398 C1.01907303 10.90280899 0.99897675 10.062164 0.97827148 9.19604492 C0.94829323 8.08684944 0.94829323 8.08684944 0.91770935 6.95524597 C1 5 1 5 2 2 C1.34 2 0.68 2 0 2 C0 1.34 0 0.68 0 0 Z " fill="#F6F6F6" transform="translate(130,74)"/>
<path d="M0 0 C0.99 0 1.98 0 3 0 C4.83691257 3.78187881 5.15837626 5.94568308 4 10 C3.34 10 2.68 10 2 10 C1.2884375 10.99 1.2884375 10.99 0.5625 12 C0.046875 12.66 -0.46875 13.32 -1 14 C-4 14 -4 14 -6 13 C-4.31326082 8.50202887 -2.18326108 4.27113698 0 0 Z " fill="#E1E1E1" transform="translate(73,76)"/>
<path d="M0 0 C0.99 0 1.98 0 3 0 C2.28028381 3.75345656 0.66887798 6.86091969 -1.0625 10.25 C-1.61035156 11.32765625 -2.15820312 12.4053125 -2.72265625 13.515625 C-3.35494141 14.74539062 -3.35494141 14.74539062 -4 16 C-6.31 16 -8.62 16 -11 16 C-10.29379845 14.34418275 -9.55912762 12.70048614 -8.8125 11.0625 C-8.40644531 10.14597656 -8.00039063 9.22945312 -7.58203125 8.28515625 C-6 6 -6 6 -3.32421875 5.18359375 C-2.55722656 5.12300781 -1.79023437 5.06242187 -1 5 C-0.67 3.35 -0.34 1.7 0 0 Z " fill="#F6F3F3" transform="translate(57,111)"/>
<path d="M0 0 C4.18068011 4.66306628 7.62513556 10.20533077 10 16 C9.66796875 18.33984375 9.66796875 18.33984375 9 20 C9 19.34 9 18.68 9 18 C8.360625 17.896875 7.72125 17.79375 7.0625 17.6875 C6.381875 17.460625 5.70125 17.23375 5 17 C4.67 16.01 4.34 15.02 4 14 C3.34 13.67 2.68 13.34 2 13 C2.04125 12.05125 2.0825 11.1025 2.125 10.125 C2.34973818 6.89755144 2.34973818 6.89755144 0 5 C-0.33 4.01 -0.66 3.02 -1 2 C-0.67 1.34 -0.34 0.68 0 0 Z " fill="#EEEDED" transform="translate(75,73)"/>
<path d="M0 0 C4.87866775 0.45382956 7.43820701 1.6360844 11 5 C13 8 13 8 12.625 10.1875 C12.41875 10.785625 12.2125 11.38375 12 12 C11.01 11.34 10.02 10.68 9 10 C9 9.34 9 8.68 9 8 C7.68 7.67 6.36 7.34 5 7 C5.66 6.01 6.32 5.02 7 4 C6.21625 3.71125 5.4325 3.4225 4.625 3.125 C2 2 2 2 0 0 Z " fill="#EFEFEF" transform="translate(153,75)"/>
<path d="M0 0 C1.5625 1.625 1.5625 1.625 3 4 C2.6875 7.25 2.6875 7.25 2 10 C-0.97 9.505 -0.97 9.505 -4 9 C-2.80100302 5.9168649 -1.52299523 2.93720508 0 0 Z " fill="#E7E7E7" transform="translate(75,76)"/>
<path d="M0 0 C2.62002725 2.37050084 4.35819909 4.87276017 6 8 C6 8.99 6 9.98 6 11 C4.35 11 2.7 11 1 11 C1.20625 10.401875 1.4125 9.80375 1.625 9.1875 C2.30671915 6.71549154 2.30671915 6.71549154 0 4 C0 2.68 0 1.36 0 0 Z " fill="#F6F4F5" transform="translate(98,116)"/>
<path d="M0 0 C0.99 0.33 1.98 0.66 3 1 C3 1.66 3 2.32 3 3 C4.94112319 4.07295604 4.94112319 4.07295604 7 4.4375 C9 5 9 5 11 7 C6.75519536 7.33292585 4.64457375 7.43885872 1.0625 5 C0.381875 4.34 -0.29875 3.68 -1 3 C-0.67 2.01 -0.34 1.02 0 0 Z " fill="#E4E4E4" transform="translate(154,120)"/>
<path d="M0 0 C2.475 0.99 2.475 0.99 5 2 C4.67 3.32 4.34 4.64 4 6 C2.68 6.33 1.36 6.66 0 7 C-0.66 5.68 -1.32 4.36 -2 3 C-1.34 2.01 -0.68 1.02 0 0 Z M1 2 C1 2.99 1 3.98 1 5 C1.66 5 2.32 5 3 5 C2.67 4.01 2.34 3.02 2 2 C1.67 2 1.34 2 1 2 Z " fill="#CED0D0" transform="translate(87,134)"/>
<path d="M0 0 C3.625 0.375 3.625 0.375 7 1 C7.33 2.32 7.66 3.64 8 5 C6.35 5 4.7 5 3 5 C3 4.34 3 3.68 3 3 C1.35 2.67 -0.3 2.34 -2 2 C-1.34 1.34 -0.68 0.68 0 0 Z " fill="#E5E4E4" transform="translate(145,108)"/>
<path d="M0 0 C3.49084212 1.08336479 4.05521194 2.1047123 5.8125 5.4375 C7 9 7 9 6 12 C5.66226563 11.45730469 5.32453125 10.91460937 4.9765625 10.35546875 C4.53054687 9.64003906 4.08453125 8.92460938 3.625 8.1875 C3.18414062 7.47980469 2.74328125 6.77210937 2.2890625 6.04296875 C1.21811524 4.34567961 0.11323761 2.66985642 -1 1 C-0.67 0.67 -0.34 0.34 0 0 Z " fill="#F4F4F4" transform="translate(90,103)"/>
<path d="M0 0 C1.2065625 0.0309375 1.2065625 0.0309375 2.4375 0.0625 C3.0625 1.9375 3.0625 1.9375 3.4375 4.0625 C2.7775 4.7225 2.1175 5.3825 1.4375 6.0625 C-0.6875 5.6875 -0.6875 5.6875 -2.5625 5.0625 C-3.125 3.125 -3.125 3.125 -3.5625 1.0625 C-2.5625 0.0625 -2.5625 0.0625 0 0 Z M-1.5625 1.0625 C-1.5625 2.0525 -1.5625 3.0425 -1.5625 4.0625 C-0.5725 4.0625 0.4175 4.0625 1.4375 4.0625 C1.4375 3.0725 1.4375 2.0825 1.4375 1.0625 C0.4475 1.0625 -0.5425 1.0625 -1.5625 1.0625 Z " fill="#D3D6D5" transform="translate(153.5625,134.9375)"/>
<path d="M0 0 C0.33 0 0.66 0 1 0 C2.76165803 5.28497409 2.76165803 5.28497409 3 8 C1.125 10.5 1.125 10.5 -1 12 C-1.99 11.67 -2.98 11.34 -4 11 C-3.525625 10.29875 -3.05125 9.5975 -2.5625 8.875 C-0.91260143 5.83918663 -0.39631536 3.40831214 0 0 Z " fill="#D9D9D9" transform="translate(162,93)"/>
<path d="M0 0 C2.475 0.99 2.475 0.99 5 2 C5.33 1.34 5.66 0.68 6 0 C6 1.65 6 3.3 6 5 C5.01 4.67 4.02 4.34 3 4 C2.34 4.66 1.68 5.32 1 6 C0 5 0 5 -0.0625 2.4375 C-0.041875 1.633125 -0.02125 0.82875 0 0 Z " fill="#CECFCF" transform="translate(55,135)"/>
<path d="M0 0 C0.99 0 1.98 0 3 0 C2.125 4.75 2.125 4.75 1 7 C0.34 7 -0.32 7 -1 7 C-1 6.34 -1 5.68 -1 5 C-1.66 4.67 -2.32 4.34 -3 4 C-1 1 -1 1 0 0 Z " fill="#EEEEEE" transform="translate(69,88)"/>
<path d="M0 0 C1.65 0 3.3 0 5 0 C5.33 0.66 5.66 1.32 6 2 C4.68 2 3.36 2 2 2 C2.99 2.33 3.98 2.66 5 3 C5 3.66 5 4.32 5 5 C4.01 5.33 3.02 5.66 2 6 C1.01 5.01 0.02 4.02 -1 3 C-0.67 2.01 -0.34 1.02 0 0 Z " fill="#DCE1DF" transform="translate(136,135)"/>
<path d="M0 0 C0.33 0.66 0.66 1.32 1 2 C0.34 2 -0.32 2 -1 2 C-0.34 2.66 0.32 3.32 1 4 C0.625 6.625 0.625 6.625 0 9 C-1.32 8.34 -2.64 7.68 -4 7 C-3.39816251 4.97954558 -2.72693904 2.97888961 -2 1 C-1.34 0.67 -0.68 0.34 0 0 Z " fill="#EFEEEE" transform="translate(64,97)"/>
<path d="M0 0 C0.33 0.66 0.66 1.32 1 2 C1.66 2.33 2.32 2.66 3 3 C3 3.66 3 4.32 3 5 C3.33 5.99 3.66 6.98 4 8 C3.67 8.66 3.34 9.32 3 10 C2.34 10 1.68 10 1 10 C0.63720544 8.71073008 0.28503302 7.41846728 -0.0625 6.125 C-0.35833984 5.04605469 -0.35833984 5.04605469 -0.66015625 3.9453125 C-1 2 -1 2 0 0 Z " fill="#D8DAD9" transform="translate(161,81)"/>
<path d="M0 0 C1.98 0.99 1.98 0.99 4 2 C4.66 1.34 5.32 0.68 6 0 C6 1.65 6 3.3 6 5 C4 5 2 5 0 5 C0 3.35 0 1.7 0 0 Z " fill="#D4DCD9" transform="translate(160,135)"/>
<path d="M0 0 C1.65 0 3.3 0 5 0 C4.67 1.65 4.34 3.3 4 5 C2.68 4.67 1.36 4.34 0 4 C0 2.68 0 1.36 0 0 Z M2 1 C3 3 3 3 3 3 Z " fill="#BFC8C5" transform="translate(118,135)"/>
<path d="M0 0 C0.33 0.66 0.66 1.32 1 2 C1.66 2.33 2.32 2.66 3 3 C-1.625 5.125 -1.625 5.125 -5 4 C-3.36587557 2.29159719 -2.13093906 1.06546953 0 0 Z " fill="#E7E6E6" transform="translate(157,104)"/>
<path d="M0 0 C1.0625 1.875 1.0625 1.875 2 4 C1.67 4.66 1.34 5.32 1 6 C0.34 5.67 -0.32 5.34 -1 5 C-1.33 6.32 -1.66 7.64 -2 9 C-2.66 9 -3.32 9 -4 9 C-2.80100302 5.9168649 -1.52299523 2.93720508 0 0 Z " fill="#DFDEDE" transform="translate(66,89)"/>
<path d="M0 0 C1.65 0 3.3 0 5 0 C3.68 0.33 2.36 0.66 1 1 C1 1.66 1 2.32 1 3 C2.98 3.495 2.98 3.495 5 4 C3.35 4.66 1.7 5.32 0 6 C0 4.02 0 2.04 0 0 Z " fill="#D3D4D3" transform="translate(127,135)"/>
<path d="M0 0 C0.66 0.66 1.32 1.32 2 2 C0.68 3.32 -0.64 4.64 -2 6 C-2.99 4.35 -3.98 2.7 -5 1 C-3.68 1.33 -2.36 1.66 -1 2 C-0.67 1.34 -0.34 0.68 0 0 Z " fill="#C8C8C7" transform="translate(81,134)"/>
<path d="M0 0 C1.32 0 2.64 0 4 0 C3.67 1.65 3.34 3.3 3 5 C2.01 5 1.02 5 0 5 C-0.33 4.01 -0.66 3.02 -1 2 C-0.67 1.34 -0.34 0.68 0 0 Z " fill="#D5DAD8" transform="translate(96,135)"/>
<path d="M0 0 C3.01468588 2.00979059 3.83789182 2.70736015 5 6 C4.625 8.25 4.625 8.25 4 10 C4 9.34 4 8.68 4 8 C3.34 8 2.68 8 2 8 C1.34 5.36 0.68 2.72 0 0 Z " fill="#F6F5F5" transform="translate(80,83)"/>
<path d="M0 0 C0.66 0 1.32 0 2 0 C2.66 1.65 3.32 3.3 4 5 C3.01 5.495 3.01 5.495 2 6 C1.34 5.34 0.68 4.68 0 4 C-0.99 4.495 -0.99 4.495 -2 5 C-1.34 3.35 -0.68 1.7 0 0 Z " fill="#D2D3D3" transform="translate(48,135)"/>
<path d="M0 0 C1.19156292 4.76625167 0.3415946 5.87879351 -2 10 C-2.66 9.34 -3.32 8.68 -4 8 C-2.68 5.36 -1.36 2.72 0 0 Z " fill="#DFDDDE" transform="translate(61,98)"/>
<path d="M0 0 C0.99 0 1.98 0 3 0 C3.33 2.64 3.66 5.28 4 8 C2.68 7.34 1.36 6.68 0 6 C0 4.02 0 2.04 0 0 Z " fill="#E7E6E6" transform="translate(163,92)"/>
<path d="M0 0 C0.99 0 1.98 0 3 0 C3.99 1.98 4.98 3.96 6 6 C5.01 6 4.02 6 3 6 C2 4 1 2 0 0 Z " fill="#F2F2F2" transform="translate(85,95)"/>
<path d="M0 0 C1.32 0 2.64 0 4 0 C3.34 1.65 2.68 3.3 2 5 C1.34 4.34 0.68 3.68 0 3 C0 2.01 0 1.02 0 0 Z " fill="#C8CAC9" transform="translate(104,135)"/>
<path d="M0 0 C0.66 0 1.32 0 2 0 C2 1.65 2 3.3 2 5 C1.34 5 0.68 5 0 5 C0 3.35 0 1.7 0 0 Z " fill="#D0D6D5" transform="translate(145,135)"/>
<path d="M0 0 C0.66 0 1.32 0 2 0 C2 1.65 2 3.3 2 5 C1.34 5 0.68 5 0 5 C0 3.35 0 1.7 0 0 Z " fill="#C2C1C1" transform="translate(71,135)"/>
</svg>
